# xmcd
#
# Track frame offsets: 
#        150
#        27378
#        51107
#        70937
#        84346
#        98600
#        125948
#        142978
#        165701
#        188475
#        208062
#        225418
#
# Disc length: 3369 seconds
#
# Revision: 0
# Processed by: cddbd v1.5.2PL0 Copyright (c) Steve Scherf et al.
# Submitted via: ExactAudioCopy v0.95a5
#
DISCID=9d0d270c
DTITLE=张锐 - 二泉映月
DYEAR=1900
DGENRE=Folk
TTITLE0=病中吟
TTITLE1=月夜
TTITLE2=苦闷之讴
TTITLE3=悲歌
TTITLE4=除夜小唱
TTITLE5=闲居吟
TTITLE6=空山鸟语
TTITLE7=光明行
TTITLE8=独弦操
TTITLE9=烛影摇红
TTITLE10=听松
TTITLE11=二泉映月
EXTD=
EXTT0=
EXTT1=
EXTT2=
EXTT3=
EXTT4=
EXTT5=
EXTT6=
EXTT7=
EXTT8=
EXTT9=
EXTT10=
EXTT11=
PLAYORDER=
